<svg width="134" height="49" viewBox="0 0 134 49" fill="none" xmlns="http://www.w3.org/2000/svg">
<path d="M35.0234 36.1999C32.8057 43.0822 28.141 46.2175 20.1881 46.2175H17.6646C15.2176 46.2175 14.147 44.841 14.147 41.8587V24.5764H20.4175C26.5352 24.5764 29.7469 27.1764 29.7469 31.3058C29.7469 31.5352 30.6646 31.5352 30.6646 31.3058C30.6646 28.3999 30.4351 26.1058 30.4351 23.5058C30.4351 21.4411 30.5116 19.9882 30.5116 16.6235C30.5116 16.3176 29.6704 16.3176 29.6704 16.6235C29.6704 20.2176 26.5352 22.4352 20.494 22.4352H14.147V6.83532C14.147 4.08239 15.5235 2.78239 18.5823 2.78239H20.8764C27.2234 2.78239 30.9704 5.53532 32.6528 11.5C32.8057 11.8059 33.5704 11.6529 33.5704 11.4235L33.4175 1.25299C33.4175 0.794169 33.2645 0.564761 32.6528 0.564761H0.229411C-0.0764702 0.564761 -0.0764702 1.4824 0.229411 1.4824C4.89409 1.4824 5.6588 2.40004 5.6588 6.75884V42.1646C5.6588 46.5998 4.89409 47.441 0.229411 47.441C-0.0764702 47.441 -0.0764702 48.3586 0.229411 48.3586H34.0292C34.9469 48.3586 35.1763 48.0528 35.1763 47.2116C35.1763 43.7704 35.5586 39.3352 35.941 36.3528C35.941 36.1234 35.0998 35.894 35.0234 36.1999Z" fill="#C0AFA4"/>
<path d="M89.0235 0.564761C86.5 0.564761 85.1236 0.794169 82.2942 0.794169C77.9354 0.794169 75.7177 0.564761 72.8118 0.564761C72.506 0.564761 72.506 1.4824 72.8118 1.4824C77.7824 1.4824 79.3883 5.30591 77.553 10.2765L67.6119 36.5058L54.3825 8.28825C52.3943 4.15886 54.0002 1.4824 58.359 1.4824C58.6649 1.4824 58.6649 0.564761 58.359 0.564761C55.9119 0.564761 52.6237 0.794169 44.1355 0.794169C40.312 0.794169 40.312 0.564761 38.5532 0.564761C38.2473 0.564761 38.2473 1.4824 38.5532 1.4824C40.9238 1.4824 42.6061 3.39416 44.3649 6.91178L63.8648 48.2822C64.0178 48.6645 65.3942 48.6645 65.5472 48.2822L79.6942 10.5059C81.7589 5.00003 85.2765 1.4824 89.0235 1.4824C89.3294 1.4824 89.3294 0.564761 89.0235 0.564761Z" fill="#C0AFA4"/>
<path d="M132.87 47.441C130.347 47.441 128.359 45.1469 124.764 37.8822L105.647 0.258879C105.494 -0.123472 104.347 -0.0470027 104.27 0.258879L87.6764 36.7352C83.7764 45.3763 81.8646 47.441 77.7353 47.441C77.3529 47.441 77.3529 48.3586 77.7353 48.3586C81.1764 48.3586 82.9352 48.0528 86.9117 48.0528C90.8117 48.0528 92.8764 48.3586 95.9352 48.3586C96.394 48.3586 96.394 47.441 95.9352 47.441C90.1999 47.441 86.9881 43.6175 89.7411 37.4999L95.1705 25.494H108.782L116.735 41.1704C119.259 46.141 118.723 47.441 114.517 47.441C114.059 47.441 114.059 48.3586 114.517 48.3586C117.653 48.3586 119.794 48.0528 123.312 48.0528C126.37 48.0528 129.811 48.3586 132.87 48.3586C133.329 48.3586 133.329 47.441 132.87 47.441ZM96.1646 23.3529L101.594 11.2706L107.712 23.3529H96.1646Z" fill="#C0AFA4"/>
</svg>
