<svg width="14" height="26" viewBox="0 0 14 26" fill="none" xmlns="http://www.w3.org/2000/svg">
<path d="M1.53174 15.1346H4.11367V24.6831C4.11367 25.1076 4.45718 25.4521 4.88271 25.4521L8.99145 25.4531C9.41699 25.4531 9.7605 25.1076 9.7605 24.6841V15.1356H12.2081C12.5957 15.1356 12.9228 14.8465 12.971 14.462L13.4816 10.3604C13.5391 9.90308 13.1812 9.496 12.7187 9.496H9.7605C9.87637 6.96226 9.31445 6.2127 10.9623 6.2127C12.0779 6.07939 13.8374 6.64438 13.8374 5.44365V1.77583C13.8374 1.39131 13.5534 1.06626 13.173 1.01396C12.851 0.969873 11.5785 0.84375 10.0004 0.84375C2.81245 0.84375 4.29209 8.81309 4.1147 9.49497H1.53174C1.10723 9.49497 0.762695 9.8395 0.762695 10.264V14.3656C0.762695 14.7901 1.10723 15.1346 1.53174 15.1346ZM2.30078 11.0341H4.88271C5.30723 11.0341 5.65176 10.6896 5.65176 10.265V7.03403C5.65176 4.07783 7.23599 2.38286 9.99941 2.38286C10.8997 2.38286 11.7282 2.42695 12.2983 2.47207V4.67563C11.8861 4.88584 8.22139 3.76919 8.22139 7.44111V10.2661C8.22139 10.6906 8.56592 11.0351 8.99043 11.0351H11.8472L11.5272 13.5986H8.99043C8.56592 13.5986 8.22139 13.9431 8.22139 14.3676V23.915H5.65278V14.3666C5.65278 13.9421 5.30825 13.5976 4.88374 13.5976H2.30078V11.0341Z" fill="#FC165C"/>
</svg>
