<svg width="68" height="98" viewBox="0 0 68 98" fill="none" xmlns="http://www.w3.org/2000/svg">
<path d="M55.5891 21.7975C55.2106 21.7975 54.832 21.6531 54.5431 21.3644C53.9655 20.7866 53.9655 19.8503 54.5431 19.2726C56.99 16.8259 56.99 12.8443 54.5431 10.3976C53.9655 9.81981 53.9655 8.88348 54.5431 8.30587C55.1209 7.72845 56.0572 7.72845 56.6348 8.30587C60.235 11.9062 60.235 17.7642 56.6348 21.3646C56.3461 21.6531 55.9675 21.7975 55.5891 21.7975Z" fill="#95C7F8"/>
<path d="M61.8454 24.5442C61.4669 24.5442 61.0883 24.3999 60.7996 24.1112C60.2218 23.5335 60.2218 22.597 60.7994 22.0196C64.7607 18.0581 64.7607 11.6125 60.7994 7.65102C60.2218 7.0734 60.2218 6.13687 60.7996 5.55946C61.3772 4.98184 62.3137 4.98204 62.8914 5.55965C68.0059 10.6744 68.0059 18.9966 62.8914 24.1112C62.6024 24.3999 62.2238 24.5442 61.8454 24.5442Z" fill="#95C7F8"/>
<path d="M12.3745 21.7975C11.9961 21.7975 11.6175 21.6532 11.3286 21.3645C7.72837 17.7641 7.72837 11.9061 11.3286 8.30571C11.9064 7.7283 12.8427 7.7283 13.4203 8.30571C13.9979 8.88352 13.9979 9.81986 13.4203 10.3975C10.9734 12.8442 10.9734 16.8258 13.4203 19.2725C13.9979 19.8503 13.9979 20.7866 13.4203 21.3643C13.1316 21.6532 12.753 21.7975 12.3745 21.7975Z" fill="#95C7F8"/>
<path d="M6.11771 24.5442C5.73907 24.5442 5.36063 24.3999 5.07173 24.111C-0.0427897 18.9963 -0.0427897 10.674 5.07173 5.55947C5.64954 4.98166 6.58607 4.98185 7.16329 5.55927C7.7411 6.13689 7.7411 7.07341 7.16349 7.65083C3.20222 11.6123 3.20222 18.0579 7.16349 22.0194C7.7411 22.597 7.7411 23.5336 7.16329 24.111C6.87478 24.3999 6.49614 24.5442 6.11771 24.5442Z" fill="#95C7F8"/>
<path d="M65.8216 64.4751C65.8216 82.9903 52.5152 97.8028 33.9998 97.8028C33.1404 97.8028 32.2882 97.9676 31.445 97.9041C30.8131 97.8566 30.1862 97.7913 29.5646 97.7093C28.5579 97.5762 27.5654 95.6954 26.5888 95.475C25.3127 95.187 24.0642 96.5294 22.8478 96.1005C13.9452 92.9612 6.76593 86.1692 3.10935 77.5245C1.41279 73.5136 2.17795 69.1041 2.17795 64.4751C2.17795 57.0166 2.91037 50.127 7.02959 44.5583C12.6614 36.9446 21.4406 31.7999 31.445 31.0462C32.2882 30.9827 33.1402 31.1476 33.9998 31.1476C52.5152 31.1474 65.8216 45.9597 65.8216 64.4751Z" fill="#95C7F8"/>
<path d="M34.0001 30.9502C33.1405 30.9502 32.2888 30.9829 31.4453 31.0464C48.767 32.3517 62.4154 46.8193 62.4154 64.4751C62.4154 82.1309 48.767 96.5985 31.4453 97.9038C32.2886 97.9673 33.1405 98 34.0001 98C52.5153 98 67.525 82.9903 67.525 64.4751C67.525 45.9599 52.5153 30.9502 34.0001 30.9502Z" fill="#75B5F8"/>
<path d="M0.475098 64.4752C0.475098 69.0849 1.40571 73.4768 3.08905 77.4742C4.21155 80.1398 8.1878 79.3316 8.1878 76.4392V72.8101C8.1878 69.3322 10.0407 66.1175 13.0503 64.3742L24.7884 57.575C26.8164 56.4002 28.0649 54.2341 28.0649 51.8905C28.0649 49.5921 26.8637 47.4609 24.8976 46.2706L18.3549 42.3099C14.567 40.017 9.66487 40.9999 7.03139 44.5594C2.91137 50.1277 0.475098 57.0165 0.475098 64.4752Z" fill="#ADE4A4"/>
<path d="M36.4145 72.5375L20.2997 68.658C18.6929 68.2713 17.147 69.4891 17.147 71.1418V81.1305C17.147 82.0339 17.5059 82.9004 18.1446 83.5392L22.1008 87.4953C22.58 87.9745 22.849 88.6243 22.849 89.3017V96.0982C24.9961 96.8552 27.2429 97.4005 29.5652 97.7076V91.1043C29.5652 90.4267 29.8344 89.777 30.3134 89.2979L37.3735 82.2378C38.0123 81.599 38.3712 80.7325 38.3712 79.8291V75.0213C38.3714 73.8406 37.5623 72.8137 36.4145 72.5375Z" fill="#ADE4A4"/>
<path d="M65.8214 64.4752C65.8214 60.4656 66.8195 56.6209 65.5286 53.0568H45.532C42.1083 53.0568 39.333 55.8322 39.333 59.2557C39.333 62.6794 42.1085 65.4547 45.532 65.4547C48.6074 65.4547 51.1005 67.9477 51.1005 71.0232V80.6144C51.1005 86.0816 58.1318 88.3741 61.3076 83.9241C65.2217 78.4399 65.8214 71.7268 65.8214 64.4752Z" fill="#ADE4A4"/>
<path d="M61.3081 83.9243C65.222 78.4398 67.525 71.7266 67.525 64.4749C67.525 60.4654 66.82 56.6206 65.5291 53.0565H60.4185C61.7096 56.6206 62.4156 60.465 62.4156 64.4749C62.4156 72.6106 59.5159 80.068 54.6958 85.8739C56.9128 86.7372 59.6413 86.2598 61.3081 83.9243Z" fill="#8BD5A7"/>
<path d="M45.307 23.031C51.2168 12.7951 45.8015 0.197196 33.982 0.197196C33.2433 0.197196 32.5219 0.049884 31.8199 0.14612C21.2909 1.58927 15.1446 13.4348 20.6849 23.031L31.8126 42.3049L32.274 42.9069C33.0331 44.2217 34.9308 44.2217 35.6896 42.9069L45.307 23.031Z" fill="#F8044C"/>
<path d="M33.9818 0C33.2405 0 32.5167 0.0504846 31.8125 0.147312C42.337 1.5948 48.4795 13.437 42.9402 23.031L31.8125 42.3049L32.274 43.104C33.033 44.4187 34.9307 44.4187 35.6898 43.104L47.2789 23.0308C53.1886 12.7951 45.8013 0 33.9818 0V0Z" fill="#ED2930"/>
<path d="M33.982 22.6339C38.2892 22.6339 41.7809 19.1422 41.7809 14.835C41.7809 10.5278 38.2892 7.0361 33.982 7.0361C29.6748 7.0361 26.1831 10.5278 26.1831 14.835C26.1831 19.1422 29.6748 22.6339 33.982 22.6339Z" fill="#F9F6F9"/>
</svg>
