<svg width="26" height="23" viewBox="0 0 26 23" fill="none" xmlns="http://www.w3.org/2000/svg">
<path d="M0.762009 11.4759L6.88944 14.5297C7.12644 14.6467 7.40624 14.6383 7.6328 14.5057L15.3626 10.0456L9.7856 14.2604C9.61751 14.4097 9.52146 14.6227 9.52146 14.8471V21.9727C9.52146 22.7244 10.4809 23.0407 10.9309 22.4435L13.5796 18.922L20.1299 22.6523C20.5893 22.9165 21.1781 22.6513 21.2846 22.1261L25.3699 1.76747C25.492 1.15567 24.8834 0.656621 24.3175 0.88422L0.82674 10.0456C0.196143 10.292 0.155426 11.1742 0.762009 11.4759ZM24.3175 1.76747L20.1299 21.5787L13.8661 17.6412C13.5279 17.448 13.0971 17.7258 12.8569 18.0432L10.3513 20.7553V15.1795L19.3001 7.66247C20.0069 7.03709 20.1072 6.11461 19.3001 6.58861L13.5796 10.0456L7.48763 13.3897L1.76036 10.8841L24.3175 1.76747Z" fill="#FC165C"/>
</svg>
