<svg width="23" height="26" viewBox="0 0 23 26" fill="none" xmlns="http://www.w3.org/2000/svg">
<path d="M8.22574 25.4531C6.43435 25.4531 4.74485 24.8816 3.33991 23.8002C3.07747 23.5983 2.82513 23.3777 2.58961 23.145C0.949628 21.5243 0.124349 19.3657 0.266141 17.0667C0.373326 15.3292 1.07316 13.6541 2.23777 12.3501C3.78019 10.6231 5.90659 9.67188 8.22622 9.67188C8.62468 9.67188 9.02698 9.70168 9.42304 9.76032L10.0383 9.85165V15.3114L9.09091 14.9985C8.81501 14.9071 8.52807 14.861 8.23775 14.861C7.50428 14.861 6.81743 15.1484 6.30361 15.6699C5.79219 16.189 5.51678 16.8754 5.52736 17.6036C5.5413 18.5423 6.03589 19.3931 6.85011 19.8804C7.22502 20.1044 7.65184 20.2356 8.08538 20.2597C8.42761 20.2784 8.76551 20.2337 9.09043 20.1265C10.2012 19.7598 10.9477 18.7293 10.9477 17.5627L10.9525 11.9007V0.84375H16.1704L16.1767 1.558C16.1796 1.88148 16.2127 2.20496 16.2752 2.51834C16.5203 3.75073 17.2115 4.84902 18.2214 5.61037C19.1178 6.28665 20.1877 6.64378 21.3144 6.64378C21.3408 6.64378 21.3408 6.64378 21.5816 6.6606L22.2521 6.7077V11.1297V11.8507L22.0118 11.8502H21.5326C21.5287 11.8502 21.5249 11.8502 21.5206 11.8502H21.2903C21.2894 11.8502 21.2879 11.8502 21.2865 11.8502C19.8969 11.8502 18.5948 11.5854 17.3043 11.0408C16.9198 10.8783 16.5453 10.6928 16.1839 10.4856L16.2002 17.5901C16.1916 19.6916 15.361 21.6627 13.8619 23.1446C12.6453 24.3467 11.1101 25.1147 9.42208 25.3647C9.02842 25.4233 8.62612 25.4531 8.22574 25.4531ZM8.22574 11.1138C6.32283 11.1138 4.57807 11.8939 3.31299 13.3104C2.36322 14.3741 1.79221 15.7396 1.70473 17.1552C1.58938 19.0321 2.26325 20.7951 3.60283 22.1188C3.79653 22.3101 4.00369 22.4913 4.21902 22.6572C5.3697 23.543 6.75542 24.0112 8.22574 24.0112C8.55546 24.0112 8.88663 23.9867 9.21107 23.9386C10.5939 23.7338 11.8518 23.1047 12.8486 22.1193C14.0733 20.909 14.7515 19.3003 14.7588 17.5892L14.7362 7.66901L15.9008 8.56734C16.5021 9.03117 17.1635 9.41666 17.8657 9.71322C18.8256 10.1184 19.7931 10.3434 20.8097 10.3967V8.06795C19.5533 7.97374 18.3665 7.52721 17.3528 6.7625C16.0599 5.78773 15.175 4.38039 14.8607 2.80048C14.827 2.63081 14.7996 2.45922 14.7794 2.28619H12.3939V11.9011L12.3891 17.5632C12.3891 19.3527 11.2452 20.9331 9.54224 21.4954C9.04573 21.6593 8.52903 21.7276 8.00608 21.6992C7.33989 21.6627 6.68429 21.4613 6.10943 21.1176C4.8631 20.3722 4.10607 19.0662 4.08492 17.6247C4.06858 16.5077 4.49107 15.4541 5.27549 14.6577C6.06232 13.8588 7.11399 13.419 8.23679 13.419C8.35695 13.419 8.47616 13.4243 8.59536 13.4344V11.1239C8.47231 11.1172 8.34878 11.1138 8.22574 11.1138Z" fill="#FC165C"/>
</svg>
